<mxfile host="app.diagrams.net" agent="Mozilla/5.0 (Macintosh; Intel Mac OS X 10_15_7) AppleWebKit/605.1.15 (KHTML, like Gecko) Version/17.4 Safari/605.1.15" version="24.9.1">
  <diagram id="C5RBs43oDa-KdzZeNtuy" name="Page-1">
    <mxGraphModel dx="823" dy="477" grid="0" gridSize="10" guides="1" tooltips="1" connect="1" arrows="1" fold="1" page="1" pageScale="1" pageWidth="827" pageHeight="1169" math="0" shadow="0">
      <root>
        <mxCell id="WIyWlLk6GJQsqaUBKTNV-0" />
        <mxCell id="WIyWlLk6GJQsqaUBKTNV-1" parent="WIyWlLk6GJQsqaUBKTNV-0" />
        <mxCell id="h8-HwCoDp5gDYGon_-DF-4" value="" style="edgeStyle=orthogonalEdgeStyle;rounded=0;orthogonalLoop=1;jettySize=auto;html=1;" edge="1" parent="WIyWlLk6GJQsqaUBKTNV-1" source="h8-HwCoDp5gDYGon_-DF-1" target="h8-HwCoDp5gDYGon_-DF-3">
          <mxGeometry relative="1" as="geometry" />
        </mxCell>
        <mxCell id="h8-HwCoDp5gDYGon_-DF-1" value="开始" style="ellipse;whiteSpace=wrap;html=1;" vertex="1" parent="WIyWlLk6GJQsqaUBKTNV-1">
          <mxGeometry x="328.5" y="70" width="81" height="40" as="geometry" />
        </mxCell>
        <mxCell id="h8-HwCoDp5gDYGon_-DF-2" value="结束" style="ellipse;whiteSpace=wrap;html=1;" vertex="1" parent="WIyWlLk6GJQsqaUBKTNV-1">
          <mxGeometry x="328.5" y="380" width="81" height="40" as="geometry" />
        </mxCell>
        <mxCell id="h8-HwCoDp5gDYGon_-DF-8" style="edgeStyle=orthogonalEdgeStyle;rounded=0;orthogonalLoop=1;jettySize=auto;html=1;exitX=0.5;exitY=1;exitDx=0;exitDy=0;entryX=0.5;entryY=0;entryDx=0;entryDy=0;" edge="1" parent="WIyWlLk6GJQsqaUBKTNV-1" source="h8-HwCoDp5gDYGon_-DF-3" target="h8-HwCoDp5gDYGon_-DF-6">
          <mxGeometry relative="1" as="geometry" />
        </mxCell>
        <mxCell id="h8-HwCoDp5gDYGon_-DF-3" value="圆心、半径、颜色" style="shape=parallelogram;perimeter=parallelogramPerimeter;whiteSpace=wrap;html=1;fixedSize=1;" vertex="1" parent="WIyWlLk6GJQsqaUBKTNV-1">
          <mxGeometry x="313.5" y="140" width="111" height="30" as="geometry" />
        </mxCell>
        <mxCell id="h8-HwCoDp5gDYGon_-DF-6" value="&lt;span style=&quot;text-align: start;&quot;&gt;&lt;font style=&quot;font-size: 12px;&quot;&gt;创建 CircleD 对象&lt;/font&gt;&lt;/span&gt;" style="rounded=1;whiteSpace=wrap;html=1;" vertex="1" parent="WIyWlLk6GJQsqaUBKTNV-1">
          <mxGeometry x="318.25" y="200" width="101.5" height="30" as="geometry" />
        </mxCell>
        <mxCell id="h8-HwCoDp5gDYGon_-DF-15" style="edgeStyle=orthogonalEdgeStyle;rounded=0;orthogonalLoop=1;jettySize=auto;html=1;exitX=0.5;exitY=1;exitDx=0;exitDy=0;entryX=0.5;entryY=0;entryDx=0;entryDy=0;" edge="1" parent="WIyWlLk6GJQsqaUBKTNV-1" source="h8-HwCoDp5gDYGon_-DF-9" target="h8-HwCoDp5gDYGon_-DF-13">
          <mxGeometry relative="1" as="geometry" />
        </mxCell>
        <mxCell id="h8-HwCoDp5gDYGon_-DF-9" value="显示图像" style="shape=parallelogram;perimeter=parallelogramPerimeter;whiteSpace=wrap;html=1;fixedSize=1;" vertex="1" parent="WIyWlLk6GJQsqaUBKTNV-1">
          <mxGeometry x="313" y="260" width="100" height="30" as="geometry" />
        </mxCell>
        <mxCell id="h8-HwCoDp5gDYGon_-DF-10" style="edgeStyle=orthogonalEdgeStyle;rounded=0;orthogonalLoop=1;jettySize=auto;html=1;exitX=0.5;exitY=1;exitDx=0;exitDy=0;entryX=0.559;entryY=0.054;entryDx=0;entryDy=0;entryPerimeter=0;" edge="1" parent="WIyWlLk6GJQsqaUBKTNV-1" source="h8-HwCoDp5gDYGon_-DF-6" target="h8-HwCoDp5gDYGon_-DF-9">
          <mxGeometry relative="1" as="geometry" />
        </mxCell>
        <mxCell id="h8-HwCoDp5gDYGon_-DF-16" style="edgeStyle=orthogonalEdgeStyle;rounded=0;orthogonalLoop=1;jettySize=auto;html=1;exitX=0.5;exitY=1;exitDx=0;exitDy=0;entryX=0.5;entryY=0;entryDx=0;entryDy=0;" edge="1" parent="WIyWlLk6GJQsqaUBKTNV-1" source="h8-HwCoDp5gDYGon_-DF-13" target="h8-HwCoDp5gDYGon_-DF-2">
          <mxGeometry relative="1" as="geometry" />
        </mxCell>
        <mxCell id="h8-HwCoDp5gDYGon_-DF-13" value="&lt;div style=&quot;text-align: start;&quot;&gt;计算并输出面积&lt;/div&gt;" style="rounded=1;whiteSpace=wrap;html=1;" vertex="1" parent="WIyWlLk6GJQsqaUBKTNV-1">
          <mxGeometry x="318.25" y="320" width="101.5" height="30" as="geometry" />
        </mxCell>
      </root>
    </mxGraphModel>
  </diagram>
</mxfile>
